<?xml version="1.0" encoding="UTF-8"?>
<svg width="128mm" height="128mm" version="1.1" viewBox="0 0 128 128" xmlns="http://www.w3.org/2000/svg"><circle cx="63.911" cy="64.201" r="64"/><g fill="#fff" stroke-width="1.665" aria-label="C"><path d="m64.151 108.73q-9.5257 0-16.579-3.9188-6.9935-3.9791-10.792-11.334-3.7379-7.3553-3.7379-17.424v-24.055q0-10.068 3.7379-17.424 3.7982-7.4156 10.792-11.334 7.0538-3.9791 16.579-3.9791 7.8979 0 14.289 3.3762 6.4509 3.3762 10.671 9.7668 4.2805 6.3304 5.848 15.012h-14.831q-1.0852-4.2202-3.4365-7.3553-2.3513-3.1953-5.6069-4.8834-3.1953-1.6881-6.9332-1.6881-5.004 0-8.6816 2.291-3.6173 2.2307-5.6069 6.3906-1.9292 4.1599-1.9292 9.8271v24.055q0 5.6069 1.9292 9.7668 1.9895 4.1599 5.6069 6.3906 3.6776 2.2307 8.6816 2.2307 3.7982 0 6.9935-1.5675 3.2556-1.6278 5.6069-4.7628 2.3513-3.135 3.3762-7.5361h14.831q-1.5675 8.6816-5.848 15.012-4.2805 6.3304-10.671 9.7668-6.3906 3.3762-14.289 3.3762z"/></g></svg>
